<?xml version="1.0" encoding="UTF-8"?>
<svg id="_图层_1" data-name="图层 1" xmlns="http://www.w3.org/2000/svg" xmlns:xlink="http://www.w3.org/1999/xlink" viewBox="0 0 640 640">
  <defs>
    <style>
      .cls-1 {
        stroke: url(#_未命名的渐变_105);
        stroke-width: 15px;
      }

      .cls-1, .cls-2, .cls-3, .cls-4, .cls-5, .cls-6, .cls-7 {
        fill: none;
        stroke-miterlimit: 10;
      }

      .cls-2 {
        stroke: #fff;
      }

      .cls-3 {
        stroke: url(#_未命名的渐变_102);
      }

      .cls-3, .cls-4, .cls-5, .cls-6, .cls-7 {
        stroke-width: 16px;
      }

      .cls-4 {
        stroke: #66ffd5;
      }

      .cls-5 {
        stroke: #6f9;
      }

      .cls-8 {
        fill: #23ffbe;
      }

      .cls-6 {
        stroke: url(#_未命名的渐变_99-2);
      }

      .cls-7 {
        stroke: url(#_未命名的渐变_99);
      }

      .cls-9 {
        fill: #66ffd5;
        font-family: STHupo, STHupo;
        font-size: 63.52px;
      }
    </style>
    <linearGradient id="_未命名的渐变_99" data-name="未命名的渐变 99" x1="121.5" y1="264.36" x2="549.01" y2="264.36" gradientUnits="userSpaceOnUse">
      <stop offset=".47" stop-color="#6f9"/>
      <stop offset="1" stop-color="#ccc"/>
    </linearGradient>
    <linearGradient id="_未命名的渐变_102" data-name="未命名的渐变 102" x1="401.04" y1="326" x2="492.97" y2="326" gradientUnits="userSpaceOnUse">
      <stop offset=".47" stop-color="#6f9"/>
      <stop offset="1" stop-color="#ccc"/>
    </linearGradient>
    <linearGradient id="_未命名的渐变_99-2" data-name="未命名的渐变 99" x1="361.29" y1="393.27" x2="552.52" y2="393.27" xlink:href="#_未命名的渐变_99"/>
    <linearGradient id="_未命名的渐变_105" data-name="未命名的渐变 105" x1="292.97" y1="98.39" x2="541.46" y2="98.39" gradientUnits="userSpaceOnUse">
      <stop offset=".47" stop-color="#6f9"/>
      <stop offset="1" stop-color="#6f9"/>
    </linearGradient>
  </defs>
  <polygon class="cls-2" points="94.21 554 121.5 526.96 94.5 531.5 94.21 554"/>
  <path class="cls-5" d="m148,163s94.19,0,104.6,0,45.34,0,45.34,0"/>
  <polyline class="cls-5" points="148 201.5 248.25 201.5 267.5 201.5 267.5 225.1"/>
  <polyline class="cls-7" points="540.94 288 541 248.7 154.34 248.7 121.5 248.7"/>
  <polyline class="cls-5" points="219 248.7 219 129 219 23.86"/>
  <polyline class="cls-5" points="168 508.5 168 288 263.78 288 263.78 476.03 256 475 241 475 238 480 238 504 238.31 508.5"/>
  <polyline class="cls-5" points="240.17 362.99 240.17 350 186 350 10.36 350"/>
  <polyline class="cls-5" points="195.45 372.93 195.45 398.25 240.17 398.25 249.49 398.25"/>
  <line class="cls-5" x1="271" y1="326" x2="375.58" y2="326"/>
  <polyline class="cls-5" points="300.42 274 323.29 274 323.29 521.37"/>
  <line class="cls-5" x1="297.94" y1="326" x2="331.25" y2="326"/>
  <path class="cls-5" d="m263.78,521.37c3.22.63,85.09,0,85.09,0"/>
  <line class="cls-5" x1="442.66" y1="268.35" x2="442.66" y2="302.74"/>
  <line class="cls-3" x1="401.04" y1="326" x2="492.97" y2="326"/>
  <polyline class="cls-5" points="412.22 350 412.22 366.09 430.86 366.09"/>
  <polyline class="cls-5" points="477.44 358.05 456.94 358.05 451.98 362.99 451.98 372.93"/>
  <polyline class="cls-6" points="361.29 385.59 544.52 385.59 544.52 408.95"/>
  <polygon class="cls-5" points="401.04 414.54 401.04 428.83 401.04 444.35 401.04 458.02 488.5 458.02 488.5 417.02 488.5 408.95 401 409 401.04 414.54"/>
  <line class="cls-5" x1="404.77" y1="433.48" x2="460.05" y2="433.48"/>
  <polyline class="cls-5" points="404.77 471.06 404.77 485.97 404.77 503.36 404.77 513 409.12 521.37 375.58 521.37"/>
  <line class="cls-5" x1="464.71" y1="474.79" x2="464.71" y2="592.8"/>
  <line class="cls-5" x1="168" y1="372.93" x2="168" y2="331.93"/>
  <path class="cls-4" d="m188,77c-22.27,15.15-54.58,41.17-83,82-37.52,53.89-49.56,106.72-54,136"/>
  <path class="cls-4" d="m507.61,527.23c17.79-20.22,42.6-53.47,59.95-100.1,22.9-61.54,21.41-115.7,18.41-145.17"/>
  <polyline class="cls-1" points="292.97 98.39 533.96 98.39 541 98.39"/>
  <path class="cls-8" d="m320,16c24.25,0,48.39,2.86,71.73,8.51,22.67,5.49,44.73,13.62,65.57,24.19,36.5,18.52,69.36,44.68,95.77,76.14-.35.34-.7.68-1.05,1.02-6.04,5.95-7.88,14.81-4.69,22.58,3.27,7.98,11.18,13.34,19.67,13.34,3.82,0,7.52-1.07,10.76-3.06,30.32,48.29,46.25,103.68,46.25,161.28,0,41.05-8.04,80.86-23.88,118.33-15.31,36.2-37.23,68.71-65.16,96.63-27.92,27.92-60.44,49.85-96.63,65.16-37.47,15.85-77.28,23.88-118.33,23.88-43.44,0-85.38-8.97-124.65-26.65-33.22-14.96-63.06-35.44-88.91-61,1.34-1.24,2.69-2.55,4.04-3.96,5.88-6.17,7.46-14.83,4.13-22.6-3.34-7.8-11.16-13.04-19.46-13.04-5.62,0-10.92,2.3-14.91,6.49-.52.54-1.05,1.08-1.59,1.62-18.11-23.59-32.58-49.55-43.1-77.38-12.97-34.3-19.55-70.46-19.55-107.48,0-41.05,8.04-80.86,23.88-118.33,15.31-36.2,37.23-68.71,65.16-96.63,27.92-27.92,60.44-49.85,96.63-65.16,37.47-15.85,77.28-23.88,118.33-23.88m0-16C143.27,0,0,143.27,0,320c0,79.67,29.12,152.53,77.29,208.54,4.44-4.93,9.7-9.2,14.53-14.26,1.03-1.08,2.19-1.53,3.33-1.53,3.77,0,7.16,5.02,3.75,8.6-4.8,5.04-10.65,9.26-15.08,14.55,58.51,63.97,142.66,104.1,236.18,104.1,176.73,0,320-143.27,320-320,0-69.1-21.91-133.09-59.15-185.4-3.55,3.2-7.12,6.37-10.52,9.73-1.04,1.02-2.2,1.45-3.33,1.45-3.86,0-7.29-5.02-3.74-8.53,3.76-3.71,7.72-7.19,11.63-10.73C516.44,49.65,424.02,0,320,0h0Z"/>
  <text class="cls-9" transform="translate(286 225.38) scale(1.1 1)"><tspan x="0" y="0">QwinGin</tspan></text>
</svg>